<svg width="512" height="512" viewBox="0 0 512 512" fill="none" xmlns="http://www.w3.org/2000/svg">
<g clip-path="url(#clip0)">
<path d="M165.333 512C156.501 512 149.333 504.832 149.333 496V16C149.333 7.168 156.501 0 165.333 0C174.165 0 181.333 7.168 181.333 16V496C181.333 504.832 174.165 512 165.333 512Z" fill="white"/>
<path d="M346.667 512C337.835 512 330.667 504.832 330.667 496V16C330.667 7.168 337.835 0 346.667 0C355.499 0 362.667 7.168 362.667 16V496C362.667 504.832 355.499 512 346.667 512Z" fill="white"/>
<path d="M496 181.333H16C7.168 181.333 0 174.165 0 165.333C0 156.501 7.168 149.333 16 149.333H496C504.832 149.333 512 156.501 512 165.333C512 174.165 504.832 181.333 496 181.333Z" fill="white"/>
<path d="M496 362.667H16C7.168 362.667 0 355.499 0 346.667C0 337.835 7.168 330.667 16 330.667H496C504.832 330.667 512 337.835 512 346.667C512 355.499 504.832 362.667 496 362.667Z" fill="white"/>
<path d="M256 320C220.715 320 192 291.285 192 256C192 220.715 220.715 192 256 192C291.285 192 320 220.715 320 256C320 291.285 291.285 320 256 320ZM256 224C238.357 224 224 238.357 224 256C224 273.643 238.357 288 256 288C273.643 288 288 273.643 288 256C288 238.357 273.643 224 256 224Z" fill="#32BA24"/>
<path d="M64 128C28.7147 128 0 99.2853 0 64C0 28.7147 28.7147 0 64 0C99.2853 0 128 28.7147 128 64C128 99.2853 99.2853 128 64 128ZM64 32C46.3573 32 32 46.3573 32 64C32 81.6427 46.3573 96 64 96C81.6427 96 96 81.6427 96 64C96 46.3573 81.6427 32 64 32Z" fill="#32BA24"/>
<path d="M474.667 128C470.571 128 466.475 126.443 463.36 123.307L388.693 48.6401C382.443 42.3894 382.443 32.2561 388.693 26.0054C394.944 19.7547 405.077 19.7547 411.328 26.0054L485.995 100.672C492.245 106.923 492.245 117.056 485.995 123.307C482.859 126.443 478.763 128 474.667 128Z" fill="#D42626"/>
<path d="M400 128C395.904 128 391.808 126.443 388.693 123.307C382.443 117.056 382.443 106.923 388.693 100.672L463.36 26.0054C469.611 19.7547 479.744 19.7547 485.995 26.0054C492.245 32.2561 492.245 42.3894 485.995 48.6401L411.328 123.307C408.192 126.443 404.096 128 400 128Z" fill="#D42626"/>
<path d="M474.667 490.667C470.571 490.667 466.475 489.109 463.36 485.973L388.693 411.307C382.443 405.056 382.443 394.923 388.693 388.672C394.944 382.421 405.077 382.421 411.328 388.672L485.995 463.339C492.245 469.589 492.245 479.723 485.995 485.973C482.859 489.109 478.763 490.667 474.667 490.667Z" fill="#D42626"/>
<path d="M400 490.667C395.904 490.667 391.808 489.109 388.693 485.973C382.443 479.723 382.443 469.589 388.693 463.339L463.36 388.672C469.611 382.421 479.744 382.421 485.995 388.672C492.245 394.923 492.245 405.056 485.995 411.307L411.328 485.973C408.192 489.109 404.096 490.667 400 490.667Z" fill="#D42626"/>
</g>
<defs>
<clipPath id="clip0">
<rect width="512" height="512" fill="white"/>
</clipPath>
</defs>
</svg>
